<mxfile host="app.diagrams.net" modified="2023-04-25T08:50:44.759Z" agent="Mozilla/5.0 (Windows NT 10.0; Win64; x64) AppleWebKit/537.36 (KHTML, like Gecko) Chrome/112.0.0.0 Safari/537.36" etag="fZufbAVWcEKVRjw9XTxm" version="21.2.1">
  <diagram id="5k1DeoOOZsGGm3edqEcq" name="Page-1">
    <mxGraphModel dx="989" dy="530" grid="1" gridSize="10" guides="1" tooltips="1" connect="1" arrows="1" fold="1" page="1" pageScale="1" pageWidth="1169" pageHeight="827" math="0" shadow="0">
      <root>
        <mxCell id="0" />
        <mxCell id="1" parent="0" />
        <mxCell id="RJTvIQEwtNmMsbXSXZvk-21" style="edgeStyle=orthogonalEdgeStyle;rounded=0;orthogonalLoop=1;jettySize=auto;html=1;exitX=1;exitY=0.5;exitDx=0;exitDy=0;" parent="1" source="RJTvIQEwtNmMsbXSXZvk-7" target="RJTvIQEwtNmMsbXSXZvk-13" edge="1">
          <mxGeometry relative="1" as="geometry">
            <Array as="points">
              <mxPoint x="240" y="160" />
            </Array>
          </mxGeometry>
        </mxCell>
        <mxCell id="pgNd5S4-SN-gIO5HQWHf-8" style="edgeStyle=orthogonalEdgeStyle;rounded=0;orthogonalLoop=1;jettySize=auto;html=1;entryX=0;entryY=0.4;entryDx=0;entryDy=0;entryPerimeter=0;" edge="1" parent="1" source="RJTvIQEwtNmMsbXSXZvk-7" target="RJTvIQEwtNmMsbXSXZvk-10">
          <mxGeometry relative="1" as="geometry" />
        </mxCell>
        <mxCell id="RJTvIQEwtNmMsbXSXZvk-7" value="From" style="rounded=0;whiteSpace=wrap;html=1;labelBackgroundColor=none;fillColor=#d5e8d4;strokeColor=#82b366;" parent="1" vertex="1">
          <mxGeometry x="150" y="140" width="90" height="180" as="geometry" />
        </mxCell>
        <mxCell id="RJTvIQEwtNmMsbXSXZvk-32" style="edgeStyle=orthogonalEdgeStyle;orthogonalLoop=1;jettySize=auto;html=1;entryX=1;entryY=0.25;entryDx=0;entryDy=0;curved=1;" parent="1" edge="1">
          <mxGeometry relative="1" as="geometry">
            <mxPoint x="360" y="190" as="targetPoint" />
            <mxPoint x="360" y="210" as="sourcePoint" />
            <Array as="points">
              <mxPoint x="390" y="210" />
              <mxPoint x="390" y="190" />
            </Array>
          </mxGeometry>
        </mxCell>
        <mxCell id="pgNd5S4-SN-gIO5HQWHf-9" style="edgeStyle=orthogonalEdgeStyle;rounded=0;orthogonalLoop=1;jettySize=auto;html=1;entryX=0;entryY=0.5;entryDx=0;entryDy=0;" edge="1" parent="1" source="RJTvIQEwtNmMsbXSXZvk-10" target="RJTvIQEwtNmMsbXSXZvk-13">
          <mxGeometry relative="1" as="geometry">
            <Array as="points">
              <mxPoint x="390" y="230" />
              <mxPoint x="390" y="230" />
            </Array>
          </mxGeometry>
        </mxCell>
        <mxCell id="RJTvIQEwtNmMsbXSXZvk-10" value="Transformer" style="rounded=1;whiteSpace=wrap;html=1;fillColor=#dae8fc;strokeColor=#6c8ebf;" parent="1" vertex="1">
          <mxGeometry x="270" y="170" width="90" height="150" as="geometry" />
        </mxCell>
        <mxCell id="RJTvIQEwtNmMsbXSXZvk-13" value="To" style="rounded=0;whiteSpace=wrap;html=1;labelBackgroundColor=none;fillColor=#d5e8d4;strokeColor=#82b366;" parent="1" vertex="1">
          <mxGeometry x="400" y="140" width="90" height="180" as="geometry" />
        </mxCell>
        <mxCell id="RJTvIQEwtNmMsbXSXZvk-15" value="" style="rounded=1;whiteSpace=wrap;html=1;fillColor=#dae8fc;strokeColor=#6c8ebf;" parent="1" vertex="1">
          <mxGeometry x="367" y="351" width="40" height="19" as="geometry" />
        </mxCell>
        <mxCell id="RJTvIQEwtNmMsbXSXZvk-16" value="" style="rounded=0;whiteSpace=wrap;html=1;labelBackgroundColor=none;fillColor=#d5e8d4;strokeColor=#82b366;" parent="1" vertex="1">
          <mxGeometry x="210" y="351" width="40" height="19" as="geometry" />
        </mxCell>
        <mxCell id="RJTvIQEwtNmMsbXSXZvk-17" style="edgeStyle=orthogonalEdgeStyle;rounded=0;orthogonalLoop=1;jettySize=auto;html=1;exitX=1;exitY=0.5;exitDx=0;exitDy=0;" parent="1" edge="1">
          <mxGeometry relative="1" as="geometry">
            <mxPoint x="30" y="360" as="sourcePoint" />
            <mxPoint x="70" y="360" as="targetPoint" />
          </mxGeometry>
        </mxCell>
        <mxCell id="RJTvIQEwtNmMsbXSXZvk-18" value="Possible builder flow" style="text;html=1;strokeColor=none;fillColor=none;align=center;verticalAlign=middle;whiteSpace=wrap;rounded=0;labelBackgroundColor=none;" parent="1" vertex="1">
          <mxGeometry x="70" y="350" width="120" height="20" as="geometry" />
        </mxCell>
        <mxCell id="RJTvIQEwtNmMsbXSXZvk-19" value="Mandatory Step" style="text;html=1;strokeColor=none;fillColor=none;align=center;verticalAlign=middle;whiteSpace=wrap;rounded=0;labelBackgroundColor=none;" parent="1" vertex="1">
          <mxGeometry x="252" y="350" width="93" height="20" as="geometry" />
        </mxCell>
        <mxCell id="RJTvIQEwtNmMsbXSXZvk-20" value="Optional Step" style="text;html=1;strokeColor=none;fillColor=none;align=center;verticalAlign=middle;whiteSpace=wrap;rounded=0;labelBackgroundColor=none;" parent="1" vertex="1">
          <mxGeometry x="407" y="350" width="83" height="20" as="geometry" />
        </mxCell>
        <mxCell id="drLUvdHantv8vsGJUyKh-3" value="Name" style="rounded=1;whiteSpace=wrap;html=1;fillColor=#dae8fc;strokeColor=#6c8ebf;" parent="1" vertex="1">
          <mxGeometry x="30" y="140" width="90" height="180" as="geometry" />
        </mxCell>
        <mxCell id="drLUvdHantv8vsGJUyKh-4" value="" style="endArrow=classic;html=1;exitX=1;exitY=0.5;exitDx=0;exitDy=0;entryX=0;entryY=0.5;entryDx=0;entryDy=0;" parent="1" source="drLUvdHantv8vsGJUyKh-3" target="RJTvIQEwtNmMsbXSXZvk-7" edge="1">
          <mxGeometry width="50" height="50" relative="1" as="geometry">
            <mxPoint x="310" y="360" as="sourcePoint" />
            <mxPoint x="360" y="310" as="targetPoint" />
          </mxGeometry>
        </mxCell>
      </root>
    </mxGraphModel>
  </diagram>
</mxfile>
